<?xml version="1.0" standalone="no"?>
<!DOCTYPE svg PUBLIC "-//W3C//DTD SVG 20010904//EN"
 "http://www.w3.org/TR/2001/REC-SVG-20010904/DTD/svg10.dtd">
<svg version="1.0" xmlns="http://www.w3.org/2000/svg"
 width="600.000000pt" height="600.000000pt" viewBox="0 0 600.000000 600.000000"
 preserveAspectRatio="xMidYMid meet">
<g transform="translate(0.000000,600.000000) scale(0.100000,-0.100000)"
fill="#000000" stroke="none">
<path d="M1588 4475 c-3 -3 -18 -8 -34 -11 -36 -6 -81 -21 -116 -40 -16 -9
-28 -13 -28 -9 0 10 -115 -74 -149 -109 -19 -20 -40 -36 -47 -36 -18 0 -132
-86 -203 -154 -142 -137 -260 -301 -330 -459 -57 -130 -58 -196 -4 -262 195
-241 273 -430 298 -720 4 -38 8 -88 10 -110 3 -22 5 -119 6 -215 2 -188 -7
-248 -44 -288 -21 -23 -70 -54 -82 -51 -3 0 -19 -3 -37 -6 -17 -4 -44 -8 -59
-9 -16 -1 -35 -8 -41 -14 -18 -18 77 -15 142 4 76 22 124 72 139 144 16 75 8
673 -8 610 -4 -13 -7 16 -8 65 -1 117 -29 222 -93 350 -49 100 -143 235 -162
235 -6 0 -3 -10 6 -22 147 -200 224 -373 240 -535 l6 -58 -15 69 c-36 173
-100 308 -231 491 -47 66 -88 133 -91 150 -13 83 108 320 249 489 86 102 235
238 305 280 16 9 -47 -83 -105 -154 -151 -186 -245 -479 -198 -613 8 -21 22
-47 32 -58 9 -10 14 -19 10 -19 -4 0 -59 16 -122 36 -104 33 -114 38 -114 60
0 90 186 385 380 605 74 84 31 59 -54 -31 -194 -206 -391 -550 -347 -604 10
-12 116 -55 116 -47 0 1 23 -5 50 -14 57 -17 105 -20 105 -5 0 5 -10 29 -22
52 -27 51 -33 155 -12 207 8 18 14 44 14 56 0 37 54 164 119 277 36 64 59 87
46 47 -4 -13 -9 -69 -12 -125 -4 -84 -1 -113 17 -172 37 -121 121 -224 232
-286 79 -44 108 -54 208 -71 41 -7 86 -17 99 -21 17 -5 22 -4 17 4 -4 8 0 12
11 12 12 0 42 -37 88 -107 171 -261 345 -465 476 -561 l56 -41 -1 -229 c0
-127 -4 -234 -9 -238 -8 -8 -58 45 -81 86 -30 54 -202 309 -249 370 -124 159
-376 415 -392 398 -3 -2 66 -76 153 -164 177 -179 242 -258 397 -489 59 -88
121 -174 137 -192 l30 -31 -22 -12 c-20 -11 -27 -7 -74 42 -28 29 -98 127
-155 218 -56 91 -133 208 -169 260 -78 110 -237 274 -337 348 -86 63 -295 171
-470 242 -71 29 -185 76 -252 105 -125 54 -157 57 -55 6 31 -16 149 -68 262
-116 277 -118 431 -197 504 -257 97 -80 236 -220 296 -298 30 -39 63 -81 73
-92 9 -12 17 -25 17 -29 0 -4 6 -14 13 -21 6 -8 17 -23 24 -33 88 -146 127
-204 184 -281 66 -87 80 -114 60 -114 -16 0 -22 -33 -8 -47 16 -17 170 -26
160 -11 -3 6 3 7 15 4 12 -4 73 -7 137 -8 95 -1 119 2 133 15 14 14 14 20 2
42 -11 20 -21 25 -51 25 -60 0 -69 17 -69 131 l0 99 58 2 c169 4 222 20 294
86 74 69 92 179 41 256 -49 76 -120 113 -225 118 -56 3 -70 10 -47 24 12 7 37
62 86 194 33 88 59 145 81 178 8 12 13 12 31 1 20 -13 21 -22 21 -152 0 -135
0 -138 -25 -160 -24 -20 -25 -24 -12 -42 14 -18 29 -19 175 -21 135 -2 162 1
166 13 5 13 9 13 32 -2 31 -20 109 -15 133 10 15 15 14 18 -7 35 -28 23 -25
50 6 66 34 17 71 6 78 -23 4 -13 1 -30 -5 -36 -18 -18 -13 -45 12 -53 12 -4
96 -8 186 -9 141 0 168 2 185 17 l21 17 -27 26 c-23 21 -26 31 -21 58 3 17 7
34 9 36 1 2 17 -27 35 -64 37 -75 65 -95 124 -89 55 5 110 5 173 -2 70 -8 91
-1 134 40 58 56 60 133 6 188 -12 13 -52 39 -88 58 -46 25 -66 41 -68 58 -3
19 1 22 32 22 30 0 38 -5 52 -32 9 -18 26 -42 37 -52 19 -19 20 -19 33 -1 18
25 18 129 1 144 -19 15 -156 22 -181 9 -38 -20 -75 -66 -81 -102 -6 -28 -2
-45 20 -81 14 -25 37 -50 51 -55 13 -6 30 -14 37 -20 6 -6 28 -19 47 -29 62
-32 50 -83 -17 -72 -30 5 -41 13 -55 39 -9 18 -24 42 -34 53 -16 18 -18 18
-36 3 -11 -11 -18 -31 -18 -56 0 -21 -4 -38 -9 -38 -11 0 -38 36 -70 96 l-23
41 31 31 c25 24 31 39 31 72 0 36 -6 48 -37 80 -44 42 -75 50 -199 46 -83 -2
-114 -14 -114 -43 0 -8 9 -17 20 -20 11 -3 20 -10 21 -17 3 -78 -4 -283 -10
-289 -17 -17 -51 4 -70 41 -10 20 -42 96 -70 169 -29 72 -61 139 -70 147 -16
15 -19 14 -38 -7 -11 -12 -34 -60 -52 -107 -51 -135 -103 -250 -112 -250 -5 0
-9 19 -9 43 0 31 -5 45 -19 54 -16 10 -22 8 -38 -14 -46 -64 -49 -66 -94 -67
l-44 -1 -3 39 c-2 21 0 46 3 55 5 13 10 10 22 -14 21 -40 34 -47 55 -28 25 22
26 166 2 191 -15 15 -19 14 -45 -16 -16 -18 -31 -32 -35 -32 -3 0 -4 19 -2 43
4 38 7 42 29 40 47 -5 69 -14 69 -27 0 -8 8 -24 19 -37 16 -20 21 -21 35 -10
23 20 22 121 -2 142 -24 20 -254 24 -294 4 -23 -11 -29 -11 -38 0 -13 16 -105
11 -126 -6 -19 -15 -18 -25 6 -47 19 -18 19 -18 -1 -72 -11 -30 -25 -63 -31
-73 -9 -18 -11 -18 -23 9 -7 16 -20 49 -29 73 -16 41 -16 45 1 63 23 25 8 50
-36 59 -40 8 -126 2 -149 -10 -11 -6 -24 -6 -34 0 -10 5 -46 12 -80 15 -55 5
-67 3 -91 -16 l-28 -23 29 -31 c16 -17 44 -69 61 -116 18 -47 37 -94 42 -105
5 -11 18 -46 29 -78 39 -104 72 -96 123 28 18 44 37 79 41 78 5 -1 23 -39 41
-84 19 -45 39 -85 46 -90 27 -16 -3 -20 -169 -20 -196 0 -219 -7 -192 -56 9
-15 26 -29 38 -31 23 -4 42 -36 42 -73 0 -17 -3 -18 -22 -8 -36 19 -181 173
-283 299 -98 122 -265 355 -265 371 0 5 9 9 20 9 38 0 167 39 240 73 25 11 55
25 68 31 36 16 45 43 44 133 -2 106 7 129 50 138 57 11 66 15 72 32 4 9 -1 24
-10 34 -16 17 -36 19 -245 19 -224 0 -228 0 -243 -22 -15 -21 -14 -24 4 -43
14 -14 32 -19 63 -18 23 0 48 -4 55 -9 13 -11 18 -181 6 -212 -19 -51 -160
-84 -259 -61 -57 14 -120 50 -159 92 -71 76 -113 234 -103 385 9 128 15 156
53 235 41 83 74 120 142 161 43 25 55 27 153 27 97 0 110 -2 163 -29 81 -41
126 -90 165 -179 36 -82 57 -100 82 -69 13 17 15 45 14 166 -3 167 -9 185 -56
161 -36 -19 -70 -19 -116 0 -19 8 -45 15 -57 15 -12 0 -27 5 -33 11 -11 11
-244 24 -255 14z m208 -36 c32 -5 94 -22 137 -36 l79 -25 29 21 c15 11 31 21
34 21 3 0 5 -68 5 -151 0 -164 -8 -182 -40 -92 -38 109 -126 193 -238 229 -72
23 -198 16 -269 -15 -138 -61 -232 -249 -233 -468 0 -169 50 -304 145 -392 64
-57 130 -81 229 -81 94 0 143 15 183 55 l33 33 0 109 c0 131 -8 144 -95 151
-30 2 -55 8 -55 13 0 5 104 9 230 9 127 0 230 -4 230 -9 0 -4 -21 -11 -46 -14
-72 -8 -79 -20 -81 -150 l-1 -112 -54 -27 c-341 -170 -716 -92 -852 177 -33
67 -45 124 -46 212 0 159 46 269 160 383 138 139 318 194 516 159z m564 -1141
c0 -5 -7 -8 -15 -8 -27 0 -26 -23 6 -105 17 -44 37 -100 46 -124 l16 -44 35
89 c33 85 34 89 20 128 -8 23 -24 45 -36 51 -12 5 -22 12 -22 15 0 3 38 5 85
5 47 0 85 -3 85 -7 0 -5 -9 -8 -19 -8 -33 0 -30 -23 15 -135 24 -60 44 -116
44 -124 0 -28 16 3 60 116 44 115 46 143 10 143 -11 0 -20 4 -20 8 0 4 27 8
60 7 59 0 78 -8 42 -17 -14 -4 -39 -58 -92 -192 -41 -102 -76 -186 -80 -186
-3 0 -27 59 -54 130 -27 72 -50 129 -52 128 -1 -2 -23 -57 -50 -123 -26 -66
-50 -124 -54 -128 -4 -4 -38 74 -77 175 -53 138 -75 185 -91 193 -12 5 -22 12
-22 15 0 3 36 5 80 5 44 0 80 -3 80 -7z m750 -14 c0 -12 3 -36 6 -53 4 -20 3
-31 -5 -31 -6 0 -11 8 -11 18 -1 42 -51 72 -121 72 l-39 0 0 -80 c0 -76 1 -80
23 -80 31 0 48 13 63 47 11 25 12 19 12 -62 0 -75 -1 -85 -10 -60 -16 44 -27
55 -59 55 l-29 0 0 -66 c0 -87 10 -104 61 -104 60 0 106 25 121 66 18 51 30
41 22 -18 -4 -29 -8 -54 -9 -56 -5 -6 -325 -7 -325 0 0 4 12 8 28 10 l27 3 0
170 c0 169 0 170 -22 173 -13 2 -23 6 -23 10 0 4 65 7 145 7 141 0 145 -1 145
-21z m329 -154 c67 -166 81 -190 109 -190 6 0 12 -3 12 -7 0 -5 -38 -8 -85 -8
-47 0 -85 3 -85 8 0 4 6 7 14 7 24 0 26 15 10 64 l-16 46 -62 0 c-61 0 -62 0
-74 -33 -20 -55 -16 -77 13 -77 14 0 25 -4 25 -8 0 -5 -29 -8 -65 -8 -63 1
-88 11 -42 18 19 3 33 30 94 183 40 99 72 182 73 184 1 13 16 -21 79 -179z
m343 170 c85 0 133 -101 71 -149 -14 -12 -37 -24 -49 -27 -22 -6 -22 -7 14
-42 20 -21 49 -61 64 -90 20 -36 34 -52 48 -52 11 0 20 -5 20 -11 0 -7 -9 -9
-22 -5 -13 3 -38 6 -56 6 -31 0 -35 4 -69 75 -34 72 -62 105 -90 105 -9 0 -13
-19 -13 -66 0 -74 12 -104 40 -104 11 0 20 -3 20 -7 0 -5 -40 -8 -90 -8 -49 0
-90 3 -90 7 0 4 10 8 23 10 22 3 22 4 22 173 0 169 0 170 -22 173 -13 2 -23 7
-23 11 0 4 37 6 83 4 45 -1 99 -3 119 -3z m364 0 c19 -8 30 -8 38 0 18 18 21
11 21 -50 0 -68 -8 -76 -25 -25 -14 43 -44 65 -87 65 -60 0 -84 -57 -40 -97
12 -12 48 -33 80 -48 88 -42 114 -89 87 -159 -20 -55 -120 -84 -184 -55 -20 9
-29 9 -41 -1 -13 -11 -15 -5 -15 54 0 37 4 66 10 66 6 0 10 -9 10 -20 0 -42
29 -79 69 -90 60 -16 111 11 111 59 -1 38 -17 54 -97 95 -100 50 -124 97 -83
164 30 49 86 65 146 42z m-1720 -41 c22 -25 24 -80 3 -129 l-15 -35 -28 77
c-16 43 -26 84 -23 93 9 21 41 19 63 -6z m326 -432 c94 -30 138 -83 138 -170
0 -87 -30 -132 -118 -176 -47 -24 -187 -45 -258 -39 l-44 3 0 -110 c0 -60 3
-120 6 -133 8 -29 52 -52 99 -52 19 0 35 -4 35 -10 0 -6 -79 -10 -216 -10
-141 0 -213 3 -209 10 3 6 24 10 45 10 27 0 48 8 67 24 l28 24 0 295 c0 323 0
321 -61 333 -19 3 -34 11 -34 16 0 17 464 4 522 -15z"/>
<path d="M3315 3147 c-10 -28 -20 -58 -23 -64 -3 -9 10 -13 46 -13 l49 0 -21
59 c-12 33 -24 62 -27 65 -3 3 -14 -18 -24 -47z"/>
<path d="M3700 3205 c0 -79 1 -85 20 -85 29 0 76 26 84 45 3 9 6 32 6 51 0 45
-29 74 -75 74 l-35 0 0 -85z m73 8 c4 -21 1 -35 -9 -44 -19 -15 -23 -11 -25
32 -5 66 22 76 34 12z"/>
<path d="M2470 2644 l0 -176 84 3 c91 4 119 17 160 72 30 40 30 173 0 214 -33
46 -79 63 -166 63 l-78 0 0 -176z m170 135 c0 -5 7 -9 15 -9 8 0 24 -15 35
-32 16 -26 20 -46 17 -93 -7 -105 -34 -133 -136 -142 l-71 -6 0 147 0 147 70
-2 c39 -1 70 -6 70 -10z"/>
<path d="M2173 4188 c-23 -26 -7 -51 38 -58 30 -5 34 -9 40 -45 4 -22 7 -160
6 -308 0 -285 -1 -287 -50 -294 -42 -7 -64 -51 -34 -70 6 -4 144 -8 305 -9
272 0 293 1 309 18 11 12 19 15 23 8 12 -19 81 -29 169 -25 68 2 87 7 104 23
17 18 18 23 7 36 -7 9 -22 16 -35 16 -12 0 -30 9 -40 20 -16 17 -18 41 -19
189 -1 94 2 167 5 163 3 -4 23 -50 43 -102 20 -52 45 -113 55 -135 11 -22 32
-73 47 -113 15 -41 37 -80 48 -88 36 -25 41 -15 207 394 19 48 36 77 40 70 9
-18 6 -360 -4 -375 -4 -7 -22 -16 -39 -21 -43 -11 -58 -36 -35 -59 15 -15 41
-18 186 -20 132 -1 172 1 181 12 9 11 15 11 38 -1 31 -15 329 -17 338 -2 3 4
10 5 16 2 6 -4 68 -8 138 -10 126 -4 128 -4 144 21 14 22 14 25 0 39 -8 9 -26
16 -40 16 -31 0 -64 33 -64 65 -1 35 -1 197 0 313 l0 97 39 -42 c21 -22 68
-79 104 -125 36 -45 78 -98 94 -116 15 -18 42 -49 58 -69 17 -20 46 -55 66
-77 19 -23 45 -54 56 -69 39 -51 70 -70 107 -63 21 4 37 15 43 29 8 18 11 152
13 625 0 50 22 76 75 91 27 7 42 6 63 -5 15 -7 32 -14 38 -14 7 0 15 -7 18
-16 7 -19 7 -551 -1 -581 -3 -16 -17 -26 -43 -33 -47 -13 -68 -35 -53 -58 8
-14 28 -17 105 -18 52 0 100 -4 106 -8 7 -4 12 -3 12 2 0 5 33 8 74 7 63 -2
78 0 92 16 23 25 5 45 -47 54 -21 4 -42 12 -46 17 -5 9 -8 366 -4 565 1 52 1
52 41 64 45 14 63 45 36 64 -17 13 -317 13 -348 0 -9 -4 -23 -3 -29 1 -7 4
-70 9 -140 10 -110 3 -131 1 -150 -15 -18 -14 -20 -21 -10 -39 6 -11 19 -20
29 -20 32 1 71 -21 77 -45 9 -34 11 -417 3 -417 -4 0 -11 6 -15 14 -8 13 -78
99 -99 120 -6 6 -27 32 -46 58 -20 26 -91 113 -158 193 -107 127 -126 145
-153 147 -120 6 -164 4 -183 -7 -16 -11 -24 -11 -33 -2 -19 19 -327 19 -342 1
-10 -12 -14 -12 -28 0 -23 21 -225 17 -245 -4 -7 -8 -48 -98 -91 -200 -42
-102 -86 -206 -97 -232 -11 -27 -24 -48 -28 -48 -6 0 -143 329 -178 429 -24
68 -45 74 -238 62 -48 -3 -33 -65 17 -75 18 -3 30 -14 37 -34 13 -38 6 -582
-7 -595 -6 -6 -27 -16 -46 -23 l-36 -12 6 81 c5 62 3 87 -8 101 -21 29 -43 14
-74 -49 -23 -47 -36 -60 -78 -80 -58 -28 -164 -37 -190 -15 -13 11 -15 35 -13
143 l3 131 30 2 c36 1 95 -52 95 -86 0 -32 18 -60 40 -60 11 0 24 9 30 19 16
30 13 303 -3 325 -21 29 -51 12 -74 -44 -22 -51 -48 -70 -99 -70 l-25 0 3 132
3 133 80 -3 c100 -4 131 -21 169 -91 32 -60 51 -72 71 -45 20 26 10 180 -14
205 -15 16 -41 17 -293 17 -261 0 -278 -2 -295 -20z m580 -75 c9 -92 9 -113
-2 -113 -5 0 -12 14 -16 30 -8 38 -48 86 -88 106 -18 10 -69 18 -128 21 l-99
6 0 -167 0 -166 48 0 c26 0 58 6 72 13 31 16 70 73 70 103 0 13 5 24 10 24 6
0 10 -60 10 -160 0 -100 -4 -160 -10 -160 -5 0 -10 10 -10 23 -1 33 -36 104
-58 116 -11 6 -45 14 -76 17 l-56 7 0 -157 c0 -192 2 -196 108 -196 37 0 84 5
105 11 51 14 113 71 128 117 21 67 32 62 25 -13 -3 -38 -6 -84 -6 -102 l0 -32
-300 -3 c-165 -2 -300 0 -300 3 0 3 19 10 42 15 67 14 68 19 68 349 0 160 -3
300 -6 311 -6 24 -42 44 -79 44 -14 0 -25 5 -25 10 0 6 101 10 284 10 l283 0
6 -67z m385 -191 c56 -141 105 -267 109 -279 3 -13 8 -23 12 -23 3 0 25 49 49
108 24 59 75 185 115 280 l72 172 107 0 c60 0 110 -4 113 -10 4 -6 -6 -10 -23
-10 -17 0 -40 -9 -53 -19 l-24 -19 -3 -307 c-3 -349 -3 -350 68 -361 80 -13
36 -19 -135 -19 -172 0 -215 6 -135 20 70 12 71 15 68 331 l-3 279 -22 -55
c-12 -30 -56 -138 -98 -240 -42 -102 -90 -220 -107 -262 -17 -43 -34 -78 -37
-78 -4 0 -11 12 -17 28 -49 122 -217 541 -224 557 -6 13 -9 -73 -7 -240 2
-299 5 -310 78 -321 22 -4 38 -9 36 -11 -7 -7 -247 -8 -247 -2 0 4 16 10 35
13 62 12 64 24 65 286 1 399 3 368 -25 395 -13 14 -36 25 -50 25 -14 0 -25 5
-25 10 0 6 41 10 103 10 l102 0 103 -258z m952 248 c0 -5 -13 -10 -29 -10 -16
0 -39 -9 -52 -19 l-24 -19 0 -310 c0 -349 -1 -344 76 -357 80 -14 34 -20 -133
-18 -95 1 -175 3 -178 3 -3 1 18 9 45 18 l50 17 3 325 c2 321 2 325 -19 343
-12 9 -32 17 -45 17 -13 0 -24 5 -24 10 0 6 62 10 165 10 103 0 165 -4 165
-10z m397 -192 c93 -112 204 -247 248 -300 44 -53 80 -96 80 -95 0 1 -2 120
-5 264 -5 250 -6 263 -26 284 -12 11 -40 23 -63 26 -86 12 -35 23 104 23 90 0
145 -4 145 -10 0 -5 -13 -10 -29 -10 -17 0 -42 -10 -58 -24 l-28 -24 -3 -346
-3 -346 -33 0 c-31 0 -46 16 -272 291 -131 161 -248 303 -259 316 l-20 24 3
-268 c3 -309 3 -309 88 -330 27 -6 47 -12 44 -12 -17 -5 -270 -5 -270 0 0 3
17 10 38 15 68 17 72 38 72 347 0 208 -3 275 -14 302 -15 36 -42 55 -75 55
-12 0 -21 5 -21 10 0 6 38 10 95 10 l94 0 168 -202z m853 192 c0 -5 -13 -10
-30 -10 -17 0 -39 -9 -50 -20 -19 -19 -20 -33 -20 -334 0 -314 0 -315 22 -330
12 -9 37 -16 55 -16 18 0 33 -4 33 -10 0 -6 -67 -10 -180 -10 -113 0 -180 4
-180 10 0 6 17 10 38 10 27 0 45 7 58 21 18 20 19 40 19 331 l0 310 -24 19
c-13 10 -36 19 -52 19 -16 0 -29 5 -29 10 0 6 63 10 170 10 107 0 170 -4 170
-10z m-1543 -41 c22 -8 22 -10 25 -271 2 -145 2 -287 0 -315 -3 -52 -4 -53
-42 -63 -54 -14 -126 4 -134 33 -3 12 -6 149 -6 303 0 310 -3 296 64 320 30
11 48 10 93 -7z m331 12 c9 -5 29 -14 44 -21 14 -7 29 -21 31 -32 3 -10 5
-142 5 -293 l0 -274 -24 -22 c-26 -25 -87 -29 -136 -10 l-28 11 -1 262 c-2
342 -2 340 13 355 7 7 23 14 35 16 12 2 26 6 29 10 9 9 11 9 32 -2z"/>
<path d="M830 3324 c63 -58 124 -177 155 -297 33 -130 48 -345 49 -687 1 -332
-1 -346 -64 -366 l-34 -11 32 -8 c52 -11 63 -39 69 -175 3 -66 8 -119 10 -116
2 2 8 56 13 119 5 64 13 124 19 135 11 20 47 38 91 45 17 3 13 5 -13 6 -56 2
-83 34 -93 107 -4 33 -5 205 -2 384 3 179 4 319 1 312 -3 -6 -9 -10 -14 -6
-12 7 -11 61 2 69 7 5 5 15 -5 31 -9 13 -16 34 -16 48 0 74 -67 278 -112 341
-44 61 -106 115 -132 115 -3 0 17 -21 44 -46z m236 -1350 c9 -34 -8 -50 -29
-29 -14 13 -14 20 -4 35 16 27 25 25 33 -6z"/>
<path d="M1676 3338 c4 -7 27 -43 51 -81 24 -37 43 -70 43 -73 0 -2 4 -10 10
-17 5 -7 40 -55 77 -107 37 -52 79 -108 93 -125 75 -88 195 -194 207 -182 7 8
-158 178 -167 172 -4 -3 -14 3 -21 13 -13 15 -12 16 4 3 9 -7 17 -11 17 -8 0
4 -154 214 -166 227 -3 2 -2 -4 1 -15 7 -20 6 -20 -9 -1 -19 23 -21 40 -4 30
6 -4 4 4 -5 17 -10 13 -23 24 -29 24 -6 0 -13 6 -16 14 -3 9 0 11 8 6 9 -5 11
-4 6 4 -4 6 -11 9 -16 6 -4 -2 -23 20 -41 50 -18 30 -37 55 -42 55 -4 0 -5 -6
-1 -12z m118 -144 c3 -8 2 -12 -4 -9 -6 3 -10 10 -10 16 0 14 7 11 14 -7z
m107 -154 c34 -47 54 -78 45 -71 -17 14 -93 117 -111 151 -14 26 1 7 66 -80z"/>
<path d="M1474 3126 c1 -8 5 -18 8 -22 4 -3 5 1 4 10 -1 8 -5 18 -8 22 -4 3
-5 -1 -4 -10z"/>
<path d="M1504 3111 c7 -11 46 -35 46 -28 0 3 -12 12 -26 22 -15 9 -23 12 -20
6z"/>
<path d="M1195 3092 c-16 -11 -38 -28 -47 -39 -19 -21 -58 -126 -57 -152 0 -9
8 9 18 41 26 80 56 125 94 137 53 18 120 15 190 -8 52 -17 60 -5 11 16 -60 26
-172 29 -209 5z"/>
<path d="M1149 2998 c-46 -90 -60 -201 -66 -520 -6 -323 -2 -366 44 -427 33
-43 94 -69 185 -79 l73 -8 -70 -8 c-79 -9 -153 -37 -184 -69 -32 -36 -48 -85
-62 -195 -17 -144 -32 -137 -43 21 -12 165 -79 231 -243 240 -34 2 -60 0 -57
-4 7 -12 82 -31 94 -24 14 9 117 -43 138 -69 17 -23 41 -115 57 -223 5 -31 3
-43 -6 -43 -26 0 2 -13 36 -17 33 -3 35 -2 36 27 2 41 4 60 13 95 3 17 11 53
18 80 6 28 19 62 30 78 26 36 91 67 153 72 61 4 82 12 89 32 9 23 0 31 -47 38
-101 17 -152 35 -179 64 -49 54 -53 89 -52 421 2 323 10 399 53 508 25 62 20
68 -10 10z"/>
<path d="M1082 2860 c0 -14 2 -19 5 -12 2 6 2 18 0 25 -3 6 -5 1 -5 -13z"/>
<path d="M2915 2820 c-17 -19 -17 -21 -1 -39 10 -11 28 -22 42 -25 l24 -6 -2
-283 -3 -282 -39 -5 c-47 -6 -73 -37 -53 -63 10 -15 34 -17 175 -18 163 0 192
5 192 36 0 17 -33 45 -53 45 -9 0 -21 9 -27 19 -13 24 -13 221 -1 221 9 0 51
-52 51 -64 0 -3 18 -35 40 -71 22 -36 40 -68 40 -71 0 -3 16 -30 36 -60 l36
-54 199 0 c186 0 199 1 209 19 15 28 14 31 -25 47 -20 8 -38 20 -41 27 -2 7 4
37 13 67 l18 55 55 5 c93 8 110 3 131 -44 21 -45 25 -96 8 -96 -15 0 -39 -26
-39 -43 0 -34 23 -36 360 -36 301 0 338 2 380 19 26 10 51 16 54 13 3 -4 6 -2
6 3 0 5 15 18 33 27 45 26 102 100 128 169 30 81 25 218 -13 299 -29 63 -113
151 -161 169 -17 6 -41 17 -52 23 -13 8 -86 12 -213 13 -185 2 -194 1 -213
-20 -20 -21 -20 -21 2 -38 11 -10 30 -18 40 -18 10 0 22 -8 28 -17 14 -28 12
-528 -3 -548 -14 -19 -68 -28 -100 -15 -20 7 -51 60 -62 105 -2 10 -40 108
-137 361 -30 77 -61 150 -68 162 -23 36 -45 26 -73 -33 -14 -31 -26 -58 -26
-62 0 -3 -13 -40 -30 -82 -16 -42 -59 -152 -96 -246 -36 -93 -77 -181 -90
-194 -21 -23 -26 -24 -49 -11 -20 11 -138 175 -154 215 -2 6 -15 23 -28 39
l-25 30 34 17 c114 59 146 195 65 282 -61 66 -76 69 -318 73 -175 3 -187 2
-204 -16z m454 -40 c25 -14 54 -40 65 -59 26 -45 26 -113 -1 -149 -30 -40 -99
-83 -144 -89 -40 -6 -55 -23 -20 -23 34 0 79 -49 151 -166 39 -62 81 -120 93
-129 29 -21 90 -19 109 3 17 18 248 606 248 629 0 41 25 -14 115 -253 121
-323 152 -388 183 -392 12 -2 22 -8 22 -13 0 -5 -58 -9 -135 -9 -83 0 -135 4
-135 10 0 6 11 10 24 10 49 0 53 24 21 116 l-29 85 -104 -3 -104 -3 -24 -64
c-13 -35 -24 -74 -24 -87 0 -25 26 -44 59 -44 11 0 23 -4 26 -10 4 -7 -61 -10
-189 -10 l-195 0 -82 145 c-81 145 -114 185 -151 185 -19 0 -20 -6 -16 -141 3
-125 5 -142 22 -155 11 -8 32 -14 48 -14 15 0 28 -4 28 -10 0 -6 -64 -10 -171
-10 -111 0 -168 3 -164 10 3 6 22 10 41 10 21 0 42 8 54 20 19 19 20 33 20
302 0 248 -2 284 -17 300 -9 10 -26 18 -39 18 -13 0 -26 5 -29 11 -5 7 53 10
196 7 196 -3 206 -4 248 -28z m1283 3 c110 -50 169 -125 194 -243 25 -123 -11
-247 -94 -322 -83 -75 -135 -88 -359 -88 -109 0 -173 4 -173 10 0 6 13 10 29
10 20 0 36 9 50 26 20 25 21 39 21 291 0 305 -4 322 -72 323 -16 0 -28 5 -28
11 0 8 58 10 193 7 171 -3 197 -6 239 -25z"/>
<path d="M3130 2634 l0 -157 51 6 c94 11 139 63 139 160 0 102 -44 147 -145
147 l-45 0 0 -156z m114 114 c48 -21 63 -142 23 -191 -18 -23 -88 -53 -99 -42
-2 2 -2 55 0 119 3 109 4 115 25 119 12 2 23 5 24 6 1 0 14 -4 27 -11z"/>
<path d="M3825 2605 c-4 -11 -24 -65 -45 -120 l-37 -100 85 -3 c46 -2 86 -1
88 1 2 2 -16 57 -40 123 -33 89 -46 114 -51 99z m30 -121 c25 -61 21 -74 -25
-74 -22 0 -40 4 -40 8 0 20 33 102 41 102 5 0 16 -16 24 -36z"/>
<path d="M4440 2784 c0 -5 0 -142 0 -304 1 -336 -2 -325 80 -324 69 1 120 37
157 111 27 55 28 64 28 198 0 124 -3 146 -23 190 -26 57 -55 91 -94 111 -33
17 -148 31 -148 18z m167 -71 c56 -52 74 -116 72 -254 -2 -173 -44 -253 -146
-274 -24 -5 -36 -2 -50 12 -17 17 -18 38 -15 286 l3 267 48 0 c41 0 53 -5 88
-37z"/>
<path d="M5132 2832 c-7 -5 -37 -71 -66 -148 -29 -76 -78 -205 -109 -285 -32
-81 -57 -152 -57 -159 0 -7 -21 -32 -46 -55 -41 -38 -45 -45 -35 -64 11 -19
20 -21 111 -21 90 0 100 2 110 21 9 16 8 25 -6 40 -9 10 -25 19 -36 19 -10 0
-18 7 -18 18 0 31 20 90 38 111 15 19 24 20 91 14 72 -6 73 -7 88 -41 8 -20
17 -50 20 -68 5 -28 2 -34 -26 -48 -33 -18 -39 -37 -17 -55 21 -18 301 -14
317 5 15 18 5 42 -23 53 -39 15 -55 41 -111 191 -30 80 -81 213 -112 295 -52
136 -77 185 -94 185 -3 0 -12 -4 -19 -8z m28 -24 c0 -20 227 -606 245 -634 10
-16 25 -24 45 -24 17 0 30 -4 30 -10 0 -6 -57 -10 -150 -10 -93 0 -150 4 -150
10 0 6 13 10 29 10 52 0 56 19 24 115 l-28 85 -105 0 -106 0 -26 -77 c-30 -90
-24 -116 31 -121 17 -2 31 -7 31 -13 0 -5 -45 -9 -100 -9 -96 0 -131 11 -72
23 15 3 33 16 41 28 15 25 188 471 224 577 19 57 37 80 37 50z"/>
<path d="M5090 2606 c0 -12 -35 -109 -75 -208 -6 -16 1 -18 85 -18 50 0 90 3
88 8 -1 4 -21 58 -43 120 -36 102 -55 135 -55 98z m24 -103 c7 -16 18 -44 24
-64 l10 -37 -42 5 c-22 3 -43 8 -45 10 -5 4 30 113 35 113 2 0 10 -12 18 -27z"/>
<path d="M2360 2072 c0 -7 54 -29 95 -38 6 -1 22 -5 38 -9 17 -5 27 -3 27 4 0
6 -11 11 -25 11 -14 0 -48 9 -77 20 -61 23 -58 22 -58 12z"/>
<path d="M2548 2023 c6 -2 18 -2 25 0 6 3 1 5 -13 5 -14 0 -19 -2 -12 -5z"/>
<path d="M998 1548 c14 -18 17 -47 8 -84 -4 -17 -4 -44 1 -60 7 -28 8 -27 14
16 4 25 8 66 8 93 1 41 -1 47 -20 47 -16 0 -19 -3 -11 -12z"/>
<path d="M1067 1492 c3 -37 10 -74 15 -82 6 -10 7 -3 3 23 -8 48 4 107 21 107
29 0 20 15 -11 17 l-33 2 5 -67z"/>
<path d="M1040 1452 c0 -40 4 -72 8 -72 8 0 4 131 -4 139 -2 2 -4 -28 -4 -67z"/>
<path d="M1040 1359 c0 -5 5 -7 10 -4 6 3 10 8 10 11 0 2 -4 4 -10 4 -5 0 -10
-5 -10 -11z"/>
</g>
</svg>
